<?xml version="1.0" encoding="UTF-8"?>
<svg width="120" height="40" viewBox="0 0 120 40" fill="none" xmlns="http://www.w3.org/2000/svg">
  <path d="M60 8C48.954 8 40 16.954 40 28C40 39.046 48.954 48 60 48C71.046 48 80 39.046 80 28C80 16.954 71.046 8 60 8ZM60 40C53.373 40 48 34.627 48 28C48 21.373 53.373 16 60 16C66.627 16 72 21.373 72 28C72 34.627 66.627 40 60 40Z" fill="currentColor"/>
  <path d="M60 20C55.582 20 52 23.582 52 28C52 32.418 55.582 36 60 36C64.418 36 68 32.418 68 28C68 23.582 64.418 20 60 20Z" fill="currentColor"/>
</svg>